<svg id="Layer_1" data-name="Layer 1" xmlns="http://www.w3.org/2000/svg" viewBox="0 0 16.07 16"><defs><style>.cls-1{fill:#fff;}</style></defs><rect width="16.07" height="16"/><path class="cls-1" d="M9,2v9.21a3.15,3.15,0,0,1-.21,1.23,2.88,2.88,0,0,1-.66.91,3.1,3.1,0,0,1-1,.48A6,6,0,0,1,5.38,14v-.12a4.74,4.74,0,0,0,1.44-.61,2.68,2.68,0,0,0,.64-.84,6.19,6.19,0,0,0,.16-1.27c0-.53,0-9.17,0-9.17Zm-1.32,1h0a.82.82,0,0,0-.29-.59.91.91,0,0,0-.65-.25H6.2V2H7.66Zm1.27,0V2h1.58v.14l-.64,0a.8.8,0,0,0-.61.22A.77.77,0,0,0,9,2.92Z" transform="translate(0.09 0.01)"/><rect x="8.23" y="0.85" width="0.31" height="14" rx="0.07"/><rect x="8.84" y="0.97" width="0.31" height="14" rx="0.07"/><rect x="7.66" y="0.97" width="0.31" height="14" rx="0.07"/></svg>