<?xml version="1.0" encoding="UTF-8"?> <svg xmlns="http://www.w3.org/2000/svg" width="190" height="50" viewBox="0 0 190 50" fill="none"><path fill-rule="evenodd" clip-rule="evenodd" d="M18.5791 31.8015L18.5791 47.1804L32.1596 47.1804L32.1596 35.2759C32.1596 33.4559 33.6351 31.9804 35.4551 31.9804L47.7175 31.9804L47.7175 18.3998L31.9807 18.3998C24.5792 18.3998 18.5791 24.4 18.5791 31.8015Z" fill="#27304B"></path><path fill-rule="evenodd" clip-rule="evenodd" d="M33.5385 18.5789L33.5385 3.19995L19.9579 3.19995L19.9579 15.1045C19.9579 16.9245 18.4825 18.4 16.6624 18.4L4.40003 18.4L4.40003 31.9805L20.1369 31.9805C27.5384 31.9805 33.5385 25.9804 33.5385 18.5789Z" fill="#F12F62"></path><path d="M70.089 37.1622C77.1924 37.1622 82.5031 32.0545 82.5031 25.1202C82.5031 18.1859 77.1924 13.0781 70.089 13.0781C62.9178 13.0781 57.641 18.2197 57.641 25.1202C57.641 32.0207 62.9178 37.1622 70.089 37.1622ZM70.089 34.9297C64.3724 34.9297 60.1103 30.7691 60.1103 25.1202C60.1103 19.4712 64.3724 15.3106 70.089 15.3106C75.7717 15.3106 80 19.4712 80 25.1202C80 30.7691 75.7717 34.9297 70.089 34.9297Z" fill="#27304B"></path><path d="M106.447 13.2811V32.4943L91.1919 13.2811H89.1285V36.9593H91.6316V17.7461L106.853 36.9593H108.917V13.2811H106.447Z" fill="#27304B"></path><path d="M120.163 34.7944V25.9997H132.408V23.8686H120.163V15.4459H133.896V13.2811H117.66V36.9593H134.404V34.7944H120.163Z" fill="#27304B"></path><path d="M162.816 27.9218H158.96V23.4906H153.784V27.9218H147.425L157.776 13.6811H152.025L140.863 28.6998V32.3869H153.615V37.3593H158.96V32.3869H162.816V27.9218Z" fill="#27304B"></path><path d="M174.941 22.5773H173.013L173.385 18.0785H183.262V13.6811H168.818L167.601 27.0085H173.655C177.951 27.0085 179.169 28.2263 179.169 30.0867C179.169 32.0148 177.478 33.1649 174.738 33.1649C172.269 33.1649 169.799 32.3869 168.007 31.0338L165.842 35.2282C168.142 36.8519 171.592 37.7652 174.873 37.7652C181.638 37.7652 184.717 34.112 184.717 29.9176C184.717 25.7231 181.943 22.5773 174.941 22.5773Z" fill="#27304B"></path></svg> 